HIERARCHY
ROOT RootJoint
{
    OFFSET   0.000000   0.000000   0.000000
    CHANNELS 6 Xposition Yposition Zposition Xrotation Yrotation Zrotation
    JOINT pelvis_lowerback
    {
        OFFSET   0.000000   0.093605   0.000000
        CHANNELS 3 Xrotation Yrotation Zrotation
        JOINT lowerback_torso
        {
            OFFSET   0.000000   0.100000   0.000000
            CHANNELS 3 Xrotation Yrotation Zrotation
            JOINT torso_head
            {
                OFFSET   0.000000   0.282350   0.000000
                CHANNELS 3 Xrotation Yrotation Zrotation
                End Site
                {
                    OFFSET   0.000000   0.192650   0.000000
                }
            }
            JOINT rTorso_Clavicle
            {
                OFFSET  -0.001000   0.157500   0.000000
                CHANNELS 3 Xrotation Yrotation Zrotation
                JOINT rShoulder
                {
                    OFFSET  -0.117647   0.000000   0.000000
                    CHANNELS 3 Xrotation Yrotation Zrotation
                    JOINT rElbow
                    {
                        OFFSET  -0.245000   0.000000   0.000000
                        CHANNELS 3 Xrotation Yrotation Zrotation
                        JOINT rWrist
                        {
                            OFFSET  -0.240000   0.000000   0.000000
                            CHANNELS 3 Xrotation Yrotation Zrotation
                            End Site
                            {
                                OFFSET  -0.116353  -0.002500   0.000000
                            }
                        }
                    }
                }
            }
            JOINT lTorso_Clavicle
            {
                OFFSET   0.001000   0.157500   0.000000
                CHANNELS 3 Xrotation Yrotation Zrotation
                JOINT lShoulder
                {
                    OFFSET   0.117647   0.000000   0.000000
                    CHANNELS 3 Xrotation Yrotation Zrotation
                    JOINT lElbow
                    {
                        OFFSET   0.245000   0.000000   0.000000
                        CHANNELS 3 Xrotation Yrotation Zrotation
                        JOINT lWrist
                        {
                            OFFSET   0.240000   0.000000   0.000000
                            CHANNELS 3 Xrotation Yrotation Zrotation
                            End Site
                            {
                                OFFSET   0.116353  -0.002500   0.000000
                            }
                        }
                    }
                }
            }
        }
    }
    JOINT rHip
    {
        OFFSET  -0.100000  -0.051395   0.000000
        CHANNELS 3 Xrotation Yrotation Zrotation
        JOINT rKnee
        {
            OFFSET   0.000000  -0.410000   0.000000
            CHANNELS 3 Xrotation Yrotation Zrotation
            JOINT rAnkle
            {
                OFFSET   0.000000  -0.390000   0.000000
                CHANNELS 3 Xrotation Yrotation Zrotation
                JOINT rToeJoint
                {
                    OFFSET   0.000000  -0.050000   0.130000
                    CHANNELS 3 Xrotation Yrotation Zrotation
                    End Site
                    {
                        OFFSET  -0.010000   0.002000   0.060000
                    }
                }
            }
        }
    }
    JOINT lHip
    {
        OFFSET   0.100000  -0.051395   0.000000
        CHANNELS 3 Xrotation Yrotation Zrotation
        JOINT lKnee
        {
            OFFSET   0.000000  -0.410000   0.000000
            CHANNELS 3 Xrotation Yrotation Zrotation
            JOINT lAnkle
            {
                OFFSET   0.000000  -0.390000   0.000000
                CHANNELS 3 Xrotation Yrotation Zrotation
                JOINT lToeJoint
                {
                    OFFSET   0.000000  -0.050000   0.130000
                    CHANNELS 3 Xrotation Yrotation Zrotation
                    End Site
                    {
                        OFFSET   0.010000   0.002000   0.060000
                    }
                }
            }
        }
    }
}
MOTION
Frames: 11
Frame Time:   0.008333
 -1.675735   0.780210   4.324978  27.813158  34.748568  -4.786480  80.724888   1.268761   5.950534  -0.431503  -0.270023  -5.185759   1.680406  -9.129418  -9.995007  -6.603913  44.728915 -21.883923 -30.973819  17.212133  -9.943629   0.002089   1.093559  -0.001742  -0.187727   2.198235 -24.533830 -10.623258 -15.200061   1.959266   3.180850   2.053569 -24.021555   0.000208 -42.591074   0.003562   0.121612  -7.630692  17.780618 -74.016765  -0.565367 -12.554002  63.212687  -0.000201  -0.000923 -14.305123  -4.687210   1.180884   0.841079  -0.000857  -0.001662 -63.733707  10.989116  -0.451479  66.389865   0.000639  -0.001238 -11.397072   2.080228  -4.000421 -19.930213   0.000298   0.001957
 -1.675499   0.779109   4.323959  28.228597  34.667848  -5.143889  80.861220   1.302116   5.989805  -0.543014  -0.301508  -5.219440   1.671038  -9.177663 -10.022843  -6.474195  45.033432 -22.309208 -31.267758  17.292279 -10.196248   0.001915   0.929163  -0.001576  -0.121174   2.182785 -24.953613 -10.630175 -15.269883   2.152265   3.228842   2.022287 -24.076368   0.000772 -42.788687   0.003948   0.219093  -7.688025  18.209438 -74.527357  -0.640421 -12.535011  63.325418  -0.000143  -0.000796 -14.212159  -4.662291   1.380333   0.558247  -0.000274  -0.001270 -64.119148  11.060629  -0.361579  66.456400   0.000597  -0.000962 -12.075568   2.176939  -3.837613 -18.978937  -0.000119   0.002593
 -1.675326   0.777974   4.323012  28.671355  34.597490  -5.505380  81.010360   1.360501   6.012410  -0.648658  -0.303168  -5.274344   1.659268  -9.227328 -10.036356  -6.252059  45.000545 -22.828494 -31.532833  17.431095 -10.433143   0.001765   0.794532  -0.001085  -0.047383   2.210166 -25.354634 -10.644411 -15.360736   2.339364   3.264961   1.973624 -24.125844   0.001304 -42.985446   0.004252   0.331172  -7.798563  18.629608 -75.064714  -0.712159 -12.528563  63.449808  -0.000102  -0.000696 -14.124960  -4.633614   1.570919   0.252034   0.000217  -0.000961 -64.510822  11.139878  -0.281489  66.503721   0.000539  -0.000744 -12.775202   2.272146  -3.697201 -17.978532  -0.000301   0.003324
 -1.675149   0.776690   4.322085  29.107562  34.502532  -5.894796  81.150973   1.422105   6.018096  -0.744061  -0.305847  -5.343485   1.656451  -9.271380 -10.055450  -6.080427  44.973838 -23.304908 -31.781038  17.544721 -10.678402   0.001665   0.665701  -0.000683   0.037328   2.250907 -25.762466 -10.651045 -15.425690   2.509837   3.305517   1.941267 -24.176444   0.001736 -43.164736   0.004403   0.437302  -7.897899  19.029588 -75.609652  -0.797342 -12.477584  63.608944  -0.000062  -0.000607 -14.119750  -4.601888   1.728153   0.299526   0.000117  -0.000768 -64.845459  11.197738  -0.190108  66.439080   0.000345  -0.000624 -13.376563   2.356060  -3.538029 -18.258817  -0.000161   0.002354
 -1.675059   0.775566   4.321209  29.549130  34.461088  -6.269421  81.316192   1.457166   6.034775  -0.835867  -0.330571  -5.394625   1.654619  -9.313044 -10.072198  -5.946467  44.952169 -23.751292 -32.014807  17.641224 -10.928895   0.001568   0.541066  -0.000332   0.110451   2.271330 -26.186308 -10.657960 -15.489121   2.677099   3.342172   1.912499 -24.217921   0.002100 -43.329586   0.004493   0.533590  -7.975726  19.418663 -76.132312  -0.870017 -12.470840  63.746875  -0.000024  -0.000505 -14.111403  -4.591630   1.873663   0.340785   0.000049  -0.000614 -65.243082  11.262305  -0.113869  66.500754   0.000359  -0.000454 -14.092478   2.445384  -3.425880 -16.983447  -0.000153   0.003825
 -1.675000   0.774539   4.320391  29.973398  34.433142  -6.632716  81.492314   1.479404   6.047001  -0.908825  -0.366849  -5.444767   1.657359  -9.352755 -10.088887  -5.831799  44.935187 -24.167688 -32.233625  17.728162 -11.171664   0.001451   0.423033  -0.000034   0.176132   2.280245 -26.614345 -10.664218 -15.550708   2.832228   3.376080   1.885023 -24.256563   0.002404 -43.482650   0.004521   0.624317  -8.042507  19.789670 -76.622331  -0.942118 -12.470840  63.868161   0.000005  -0.000410 -14.101817  -4.591961   2.010199   0.377472   0.000002  -0.000491 -65.628774  11.329264  -0.041173  66.554606   0.000361  -0.000318 -14.716016   2.520960  -3.313549 -15.875240  -0.000133   0.004791
 -1.674960   0.773578   4.319622  30.380175  34.412853  -6.988082  81.671475   1.492488   6.053820  -0.965456  -0.409524  -5.495637   1.662785  -9.390419 -10.105225  -5.727980  44.922225 -24.555103 -32.438099  17.807826 -11.400385   0.001317   0.311946   0.000211   0.236875   2.283147 -27.032733 -10.669452 -15.610575   2.973217   3.407959   1.857944 -24.295158   0.002646 -43.625388   0.004490   0.711194  -8.103827  20.137730 -77.084182  -1.016395 -12.472792  63.978000   0.000027  -0.000326 -14.092364  -4.600173   2.138673   0.410357  -0.000029  -0.000392 -65.997219  11.391187   0.028427  66.599036   0.000350  -0.000215 -15.291159   2.590148  -3.202028 -14.865641  -0.000108   0.005419
 -1.674826   0.772196   4.318757  30.760582  34.387404  -7.316505  81.827001   1.508166   6.079643  -1.059161  -0.427051  -5.579995   1.731002  -9.477755 -10.086320  -5.631449  44.912694 -24.930831 -32.652642  17.887677 -11.599864   0.001432   0.089594   0.000502   0.334623   2.314630 -27.407868 -10.657214 -15.645169   3.155640   3.525619   1.780512 -24.443757   0.003471 -43.863310   0.005094   0.814163  -8.119926  20.495412 -77.603420  -1.112026 -12.515621  64.196144   0.000017  -0.000369 -14.122892  -4.544377   2.252054   0.440878  -0.000050  -0.000313 -66.328278  11.431542   0.058644  66.665620   0.000361  -0.000141 -16.112227   2.699600  -3.068283 -13.569897  -0.000175   0.006125
 -1.674685   0.770642   4.317855  31.114048  34.363436  -7.627132  81.979745   1.525554   6.103595  -1.157782  -0.442572  -5.663266   1.794537  -9.560131 -10.065753  -5.548193  44.905428 -25.293885 -32.853665  17.962409 -11.796821   0.001541  -0.121770   0.000694   0.412574   2.312438 -27.772402 -10.642451 -15.677765   3.319383   3.638901   1.704079 -24.593189   0.004053 -44.091385   0.005435   0.926660  -8.170409  20.809644 -78.127441  -1.200393 -12.562448  64.457050   0.000006  -0.000429 -14.166951  -4.486921   2.353492   0.467309  -0.000061  -0.000250 -66.655703  11.465610   0.085945  66.764416   0.000404  -0.000073 -16.953512   2.804908  -2.945260 -12.330123  -0.000064   0.006531
 -1.674540   0.769038   4.316925  31.440259  34.341348  -7.922566  82.135363   1.536094   6.126958  -1.251619  -0.465343  -5.739430   1.852874  -9.636239 -10.047452  -5.490624  44.899311 -25.620924 -33.045825  18.016545 -11.988633   0.001187  -0.097415   0.000522   0.445007   2.224295 -28.132806 -10.627485 -15.706988   3.468143   3.745713   1.633596 -24.735764   0.004413 -44.303580   0.005578   1.035162  -8.220443  21.102374 -78.635888  -1.281891 -12.608171  64.730061   0.000005  -0.000470 -14.212824  -4.435164   2.446076   0.490093  -0.000065  -0.000200 -66.977387  11.493998   0.112654  66.883113   0.000459  -0.000017 -17.768108   2.900933  -2.820163 -11.106237   0.000037   0.006715
 -1.674402   0.767438   4.315977  31.741124  34.320774  -8.201260  82.293357   1.541994   6.148102  -1.336429  -0.490913  -5.813519   1.908134  -9.707740 -10.028823  -5.429881  44.895124 -25.944716 -33.221651  18.080740 -12.174151   0.000914  -0.077931   0.000389   0.503857   2.198428 -28.490025 -10.614470 -15.740127   3.606251   3.843877   1.564479 -24.868897   0.004604 -44.502124   0.005580   1.139604  -8.268295  21.378956 -79.122623  -1.355889 -12.652266  65.001710   0.000011  -0.000491 -14.255495  -4.389152   2.531795   0.510023  -0.000064  -0.000160 -67.289009  11.518157   0.137641  67.009936   0.000507   0.000026 -18.542901   2.987260  -2.695308  -9.982896   0.000119   0.006626
